PathFileType	4	(X/Y/Z)	/mnt/D494C4CF94C4B4F0/Trampoline_predictions/poses3d/1_partie_0429_002.trc
DataRate	CameraRate	NumFrames	NumMarkers	Units	OrigDataRate	OrigDataStartFrame	OrigNumFrames
120	120	7	17	m	120	0	1261
Frame#	Time	Nose			L Eye			R Eye			L Ear			R Ear			L Shoulder			R Shoulder			L Elbow			R Elbow			L Wrist			R Wrist			L Hip			R Hip			L Knee			R Knee			L Ankle			R Ankle			
		X1	Y1	Z1	X2	Y2	Z2	X3	Y3	Z3	X4	Y4	Z4	X5	Y5	Z5	X6	Y6	Z6	X7	Y7	Z7	X8	Y8	Z8	X9	Y9	Z9	X10	Y10	Z10	X11	Y11	Z11	X12	Y12	Z12	X13	Y13	Z13	X14	Y14	Z14	X15	Y15	Z15	X16	Y16	Z16	X17	Y17	Z17	
0	0.0	0.4987122328704115	-0.08285593343019347	5.236055654606778	0.4606055308711472	-0.10037883722942299	5.271048807304378	0.46382495224625175	-0.05882525088408868	5.262691011444554	0.4537863420864994	-0.12922430929373446	5.357048063515109	0.4761531938361333	-0.056568074743991344	5.315461950852939	0.6252011753340903	-0.2272584110424726	5.420580279498861	0.631194014255681	0.05399323119285814	5.40043846037446	0.8015045167814089	-0.23374898312406867	5.593115266955736	0.8274564335512539	0.14571444875251668	5.541848057164905	0.9845901465005048	-0.24832697052953115	5.706364299845608	1.0199348882546038	0.15525658649619564	5.657173729007497	0.9507389062182876	-0.12744456751676606	5.6734677035815	0.9881036386255415	0.026208597782844754	5.6613822750608636	1.234899850955482	-0.13063960996366863	5.963369636201518	1.1726021469558323	0.01468873657002329	5.888364011235257	1.4061517368345386	-0.0716733224255218	6.294061684291273	1.3752464101637651	-0.034743856341823406	6.2463512288341505
1	0.008333333333333333	0.49204716921725283	-0.07597640944749817	5.241903914780346	0.4594977243625388	-0.1077163397734501	5.266566297182544	0.46054728797908134	-0.06197047105293639	5.259655946311336	0.4589809031842668	-0.14709533219418092	5.346146074189954	0.46853173295794287	-0.04229715289128308	5.318730681407147	0.5989803269036056	-0.1997810942950612	5.443099861842649	0.613408073551814	0.08265964639237616	5.409001092134337	0.7918724595968812	-0.23228043582060665	5.587216749134516	0.8329106845664911	0.14062271370015145	5.5549409682510476	0.9877808364287016	-0.2507597249196914	5.700748771131831	0.9831475359359664	0.19063356000577578	5.66902242059606	0.9297171737299182	-0.11159314849810377	5.689055161429012	0.966835502292073	0.04151483311656572	5.659088962154711	1.2415644338669214	-0.13135182327405573	5.944915297133579	1.1618084307534517	0.07253483591917625	5.864708834922238	1.441716884457086	-0.0941138616862986	6.26287596974761	1.3470202433571223	-0.02677101195020323	6.150344674243698
2	0.016666666666666666	0.4880200104389895	-0.08038065587902284	5.243851117970471	0.4550504091491611	-0.11052172194143302	5.269927544002483	0.45388376286158066	-0.06405419708311494	5.260108706580442	0.45568369406115883	-0.14948576056963797	5.351306318105976	0.45751079920646043	-0.02825106738672041	5.324526595769437	0.6107318535728793	-0.2172968238879264	5.430086962844354	0.6139660163396463	0.07780633864532478	5.406509893061091	0.794274694368216	-0.2298851123288435	5.5815426530619385	0.8169460273449446	0.1576381383088743	5.543991931123324	0.9882988035835227	-0.2448404255499959	5.6863779666359315	0.993927939899596	0.18016926522781723	5.644138549494182	0.9386027955478609	-0.11917076927715171	5.663816484465166	0.9694296920649044	0.04252036139493037	5.647692710362528	1.2363951403542572	-0.11395241398409443	5.944082367211737	1.2184555331619598	0.03355976007778732	5.902607237291213	1.441222956201644	-0.0858205308937115	6.237611610718272	1.4567097356667407	-0.019888149747215637	6.23455583984123
3	0.025	0.47358218745210573	-0.08537923891593283	5.246237349072499	0.44648332140878577	-0.11769701946154626	5.270447772544693	0.4438220802385974	-0.0656130698736008	5.262847062822874	0.45069421184183056	-0.14963511682506686	5.355780296528428	0.4554235972962464	-0.03628409313961068	5.326879760932909	0.6140870283431847	-0.220030224523673	5.419488511018214	0.6072979549135555	0.08335907991418724	5.407872780084104	0.8006881526323112	-0.24357819484668722	5.553573637463079	0.8104043288585736	0.15679095382152575	5.528271150078781	0.9894319528272429	-0.2472521021903909	5.67051777798813	0.9709798401044718	0.20521717989027327	5.635370215170045	0.9391553950019753	-0.1183673520683107	5.656944630354034	0.9723618759180621	0.04103199955855532	5.639465125363092	1.2477547710397416	-0.10653985760340222	5.932425593877301	1.26961375546129	0.018267655190605296	5.913616819765646	1.4674275859935766	-0.0820365583575985	6.214182614989012	1.44743765790879	-0.026559996591228967	6.170522911780608
4	0.03333333333333333	0.47105726134095177	-0.07565207370363723	5.245177186812503	0.4412216544828516	-0.11027869419471013	5.273157231323575	0.44045938147191277	-0.06105926525608278	5.259362971986074	0.4528829142991025	-0.1656110637156658	5.342474755540645	0.4516141699895045	-0.02787887001525857	5.323783636808564	0.5951048713577455	-0.2097695260696365	5.427956446575553	0.6037408253453442	0.08000425670283758	5.399666500554619	0.7977837014509204	-0.24759324485503045	5.5461198316700075	0.822882473179964	0.16626795159882926	5.543645997956515	0.9834135296942225	-0.2426941488740123	5.66487269530315	1.0063273242817048	0.18645285412006846	5.625791834082963	0.9458104521658088	-0.11423251208110172	5.656199005735151	0.9766700152762607	0.04385833948560548	5.636518091660466	1.270966308225231	-0.12358768112426796	5.898802241551533	1.293292481941517	0.005684101368383984	5.904981794028442	1.4752024084084834	-0.07356553280683799	6.193763665615957	1.4983392066339796	-0.0004587294023887463	6.186203938858995
5	0.041666666666666664	0.4612219405899249	-0.07533301302315788	5.244857990869886	0.43292590520098667	-0.11416049868527424	5.275998867582292	0.42945355838981053	-0.05694622934828143	5.265129641949462	0.4364492134561479	-0.14877722119106543	5.356436113245027	0.4384901927230873	-0.026322590702877416	5.333436593696979	0.5926445754504862	-0.21845718146406537	5.4111258938532725	0.5894281580008569	0.10821037647402826	5.4090387459594895	0.7845294381438754	-0.24687203085336312	5.537801609955086	0.8138446519377602	0.177155253844057	5.540752857131512	0.9832007579549381	-0.23888603208492162	5.653277097809283	1.0123761610448665	0.1749765417339016	5.609492541425663	0.9411454505688087	-0.08953253002785759	5.646911456367998	0.9810547947940411	0.045306916213203555	5.623290615266556	1.263176931549421	-0.09720540602244339	5.904290494967438	1.290592287744287	-0.04318842240652453	5.870501914955929	1.4892475650329795	-0.07192430096441764	6.171659332168269	1.493360041929876	-0.032358628998222304	6.1169432821199035
6	0.05	0.45526017094598187	-0.07314162756815108	5.239372017669991	0.4269806193216206	-0.11333732428024705	5.271421089916713	0.42660955796567995	-0.06279539092290799	5.262993297537059	0.43232390114510255	-0.15114012752607553	5.347729703709238	0.4361582332462864	-0.02442034121390039	5.331700413953022	0.5874890885858942	-0.2137320612926978	5.402542000890479	0.5807030691147235	0.11271625820149468	5.4047709843302965	0.7933779858959541	-0.248355458172015	5.523749275711356	0.8065118944875488	0.16909596039940875	5.512710392330267	0.9936042118355799	-0.24480040030191572	5.6324538633087435	1.0001657562636683	0.18555084043325823	5.602050269702903	0.9777086246115658	-0.10926241293712949	5.626487480495433	0.9756398340454551	0.04965132364663107	5.609571867485305	1.2712622203554833	-0.10986219641211797	5.865044379689166	1.3207762655277795	0.048321971829485076	5.922288589019535	1.5138645176920078	-0.07592691869381918	6.142025428562877	1.5007274383559062	0.028178242806340428	6.160874583096054
